<svg width="325" height="325" viewBox="0 0 325 325" fill="none" xmlns="http://www.w3.org/2000/svg">
<rect x="6" y="6" width="313" height="313" rx="50" fill="#0D0E0F" stroke="#FF7033" stroke-width="12"/>
<path fill-rule="evenodd" clip-rule="evenodd" d="M97 55C97 50.5817 93.4183 47 89 47H55C50.5817 47 47 50.5817 47 55V89C47 93.4183 50.5817 97 55 97H89C93.4183 97 97 93.4183 97 89V55ZM99 37C103.418 37 107 40.5817 107 45V99C107 103.418 103.418 107 99 107H45C40.5817 107 37 103.418 37 99V45C37 40.5817 40.5817 37 45 37H99ZM137 47H127V42C127 39.2386 129.239 37 132 37V37C134.761 37 137 39.2386 137 42V47ZM147 57H145C140.582 57 137 53.4183 137 49V47H139C143.418 47 147 50.5817 147 55V57ZM157 57V67H147V57H157ZM147 77H142C139.239 77 137 74.7614 137 72V72C137 69.2386 139.239 67 142 67H147V77ZM157 77V67H172C174.761 67 177 69.2386 177 72V72C177 74.7614 174.761 77 172 77H157ZM147 87V77H157V79C157 83.4183 153.418 87 149 87H147ZM147 87H135C130.582 87 127 90.5817 127 95V97H125C120.582 97 117 100.582 117 105V127H107V122C107 119.239 104.761 117 102 117V117C99.2386 117 97 119.239 97 122V127H85C80.5817 127 77 130.582 77 135V139C77 143.418 73.4183 147 69 147H65C60.5817 147 57 143.418 57 139V137H62C64.7614 137 67 134.761 67 132V132C67 129.239 64.7614 127 62 127V127C59.2386 127 57 129.239 57 132V137H45C40.5817 137 37 140.582 37 145V149C37 153.418 40.5817 157 45 157H49C53.4183 157 57 160.582 57 165V167H45C40.5817 167 37 170.582 37 175V202C37 204.761 39.2386 207 42 207V207C44.7614 207 47 204.761 47 202V185C47 180.582 50.5817 177 55 177H57V179C57 183.418 60.5817 187 65 187H67V189C67 193.418 70.5817 197 75 197H97V202C97 204.761 99.2386 207 102 207V207C104.761 207 107 204.761 107 202V197H122C124.761 197 127 199.239 127 202V202C127 204.761 124.761 207 122 207V207C119.239 207 117 209.239 117 212V212C117 214.761 119.239 217 122 217H129C133.418 217 137 220.582 137 225V232C137 234.761 134.761 237 132 237V237C129.239 237 127 239.239 127 242V252C127 254.761 129.239 257 132 257V257C134.761 257 137 259.239 137 262V262C137 264.761 134.761 267 132 267V267C129.239 267 127 269.239 127 272V277H122C119.239 277 117 279.239 117 282V282C117 284.761 119.239 287 122 287V287C124.761 287 127 284.761 127 282V277H147V282C147 284.761 149.239 287 152 287V287C154.761 287 157 284.761 157 282V277H159C163.418 277 167 273.418 167 269V265C167 260.582 163.418 257 159 257H157V252C157 249.239 154.761 247 152 247V247C149.239 247 147 244.761 147 242V232C147 229.239 149.239 227 152 227V227C154.761 227 157 229.239 157 232V232C157 234.761 159.239 237 162 237H167V242C167 244.761 169.239 247 172 247V247C174.761 247 177 249.239 177 252V252C177 254.761 179.239 257 182 257V257C184.761 257 187 259.239 187 262V267H182C179.239 267 177 269.239 177 272V272C177 274.761 179.239 277 182 277V277C184.761 277 187 274.761 187 272V267H189C193.418 267 197 270.582 197 275V282C197 284.761 199.239 287 202 287V287C204.761 287 207 284.761 207 282V257H222C224.761 257 227 254.761 227 252V252C227 249.239 229.239 247 232 247H239C243.418 247 247 243.418 247 239V197H252C254.761 197 257 199.239 257 202V202C257 204.761 259.239 207 262 207V207C264.761 207 267 204.761 267 202V187H272C274.761 187 277 189.239 277 192V192C277 194.761 279.239 197 282 197V197C284.761 197 287 194.761 287 192V182C287 179.239 284.761 177 282 177V177C279.239 177 277 174.761 277 172V167H279C283.418 167 287 163.418 287 159V142C287 139.239 284.761 137 282 137V137C279.239 137 277 134.761 277 132V125C277 120.582 273.418 117 269 117H252C249.239 117 247 119.239 247 122V122C247 124.761 244.761 127 242 127H227V125C227 120.582 223.418 117 219 117H215C210.582 117 207 113.418 207 109V102C207 99.2386 204.761 97 202 97V97C199.239 97 197 99.2386 197 102V102C197 104.761 194.761 107 192 107V107C189.239 107 187 104.761 187 102V102C187 99.2386 184.761 97 182 97H177V92C177 89.2386 174.761 87 172 87V87C169.239 87 167 89.2386 167 92V97H165C160.582 97 157 100.582 157 105V122C157 124.761 154.761 127 152 127V127C149.239 127 147 124.761 147 122V122C147 119.239 144.761 117 142 117H135C130.582 117 127 113.418 127 109V97H132C134.761 97 137 99.2386 137 102V102C137 104.761 139.239 107 142 107V107C144.761 107 147 104.761 147 102V87ZM167 97H177V112C177 114.761 174.761 117 172 117V117C169.239 117 167 114.761 167 112V97ZM217 137V135C217 130.582 220.582 127 225 127H227V129C227 133.418 223.418 137 219 137H217ZM197 167V165C197 160.582 193.418 157 189 157H185C180.582 157 177 153.418 177 149V132C177 129.239 174.761 127 172 127V127C169.239 127 167 129.239 167 132V142C167 144.761 164.761 147 162 147V147C159.239 147 157 149.239 157 152V152C157 154.761 159.239 157 162 157V157C164.761 157 167 159.239 167 162V162C167 164.761 169.239 167 172 167V167C174.761 167 177 169.239 177 172V177H175C170.582 177 167 180.582 167 185V189C167 193.418 170.582 197 175 197H177V212C177 214.761 174.761 217 172 217V217C169.239 217 167 219.239 167 222V237H182C184.761 237 187 234.761 187 232V232C187 229.239 189.239 227 192 227V227C194.761 227 197 224.761 197 222V212C197 209.239 194.761 207 192 207V207C189.239 207 187 204.761 187 202V197H202C204.761 197 207 194.761 207 192V192C207 189.239 204.761 187 202 187H195C190.582 187 187 190.582 187 195V197H177V177H182C184.761 177 187 174.761 187 172V172C187 169.239 189.239 167 192 167H197ZM197 167V169C197 173.418 200.582 177 205 177H212C214.761 177 217 179.239 217 182V182C217 184.761 219.239 187 222 187V187C224.761 187 227 184.761 227 182V167H232C234.761 167 237 169.239 237 172V172C237 174.761 239.239 177 242 177H252C254.761 177 257 179.239 257 182V182C257 184.761 259.239 187 262 187H267V175C267 170.582 270.582 167 275 167H277V152C277 149.239 274.761 147 272 147V147C269.239 147 267 144.761 267 142V142C267 139.239 264.761 137 262 137V137C259.239 137 257 139.239 257 142V152C257 154.761 254.761 157 252 157V157C249.239 157 247 154.761 247 152V142C247 139.239 244.761 137 242 137V137C239.239 137 237 139.239 237 142V142C237 144.761 234.761 147 232 147H225C220.582 147 217 143.418 217 139V137H212C209.239 137 207 134.761 207 132V132C207 129.239 204.761 127 202 127V127C199.239 127 197 129.239 197 132V142C197 144.761 199.239 147 202 147V147C204.761 147 207 149.239 207 152V159C207 163.418 203.418 167 199 167H197ZM227 167V162C227 159.239 224.761 157 222 157V157C219.239 157 217 159.239 217 162V162C217 164.761 219.239 167 222 167H227ZM247 197V192C247 189.239 244.761 187 242 187V187C239.239 187 237 189.239 237 192V192C237 194.761 239.239 197 242 197H247ZM207 257V252C207 249.239 204.761 247 202 247V247C199.239 247 197 249.239 197 252V252C197 254.761 199.239 257 202 257H207ZM157 257H155C150.582 257 147 260.582 147 265V277H157V257ZM107 197H97V192C97 189.239 99.2386 187 102 187V187C104.761 187 107 189.239 107 192V197ZM67 177H72C74.7614 177 77 179.239 77 182V182C77 184.761 74.7614 187 72 187H67V177ZM67 167V177H57V167H67ZM67 167H72C74.7614 167 77 164.761 77 162V162C77 159.239 74.7614 157 72 157V157C69.2386 157 67 159.239 67 162V167ZM97 137V127H107V129C107 133.418 103.418 137 99 137H97ZM97 137H92C89.2386 137 87 139.239 87 142V142C87 144.761 89.2386 147 92 147H97V149C97 153.418 100.582 157 105 157H112C114.761 157 117 154.761 117 152V152C117 149.239 114.761 147 112 147H97V137ZM137 157H135C130.582 157 127 153.418 127 149V142C127 139.239 124.761 137 122 137V137C119.239 137 117 134.761 117 132V127H129C133.418 127 137 130.582 137 135V157ZM147 167H145C140.582 167 137 163.418 137 159V157H139C143.418 157 147 160.582 147 165V167ZM147 167V172C147 174.761 144.761 177 142 177V177C139.239 177 137 179.239 137 182V182C137 184.761 139.239 187 142 187V187C144.761 187 147 189.239 147 192V212C147 214.761 149.239 217 152 217V217C154.761 217 157 214.761 157 212V175C157 170.582 153.418 167 149 167H147ZM157 57V52C157 49.2386 159.239 47 162 47V47C164.761 47 167 44.7614 167 42V42C167 39.2386 169.239 37 172 37V37C174.761 37 177 39.2386 177 42V49C177 53.4183 173.418 57 169 57H157ZM277 55C277 50.5817 273.418 47 269 47H235C230.582 47 227 50.5817 227 55V89C227 93.4183 230.582 97 235 97H269C273.418 97 277 93.4183 277 89V55ZM279 37C283.418 37 287 40.5817 287 45V99C287 103.418 283.418 107 279 107H225C220.582 107 217 103.418 217 99V45C217 40.5817 220.582 37 225 37H279ZM127 47V72C127 74.7614 124.761 77 122 77V77C119.239 77 117 74.7614 117 72V55C117 50.5817 120.582 47 125 47H127ZM202 47C204.761 47 207 49.2386 207 52V82C207 84.7614 204.761 87 202 87V87C199.239 87 197 84.7614 197 82V72C197 69.2386 194.761 67 192 67V67C189.239 67 187 64.7614 187 62V62C187 59.2386 189.239 57 192 57V57C194.761 57 197 54.7614 197 52V52C197 49.2386 199.239 47 202 47V47ZM79 57C83.4183 57 87 60.5817 87 65V79C87 83.4183 83.4183 87 79 87H65C60.5817 87 57 83.4183 57 79V65C57 60.5817 60.5817 57 65 57H79ZM259 57C263.418 57 267 60.5817 267 65V79C267 83.4183 263.418 87 259 87H245C240.582 87 237 83.4183 237 79V65C237 60.5817 240.582 57 245 57H259ZM47 122C47 124.761 44.7614 127 42 127V127C39.2386 127 37 124.761 37 122V122C37 119.239 39.2386 117 42 117V117C44.7614 117 47 119.239 47 122V122ZM107 172C107 169.239 104.761 167 102 167V167C99.2386 167 97 169.239 97 172V172C97 174.761 99.2386 177 102 177V177C104.761 177 107 174.761 107 172V172ZM127 172C127 169.239 124.761 167 122 167V167C119.239 167 117 169.239 117 172V172C117 174.761 119.239 177 122 177V177C124.761 177 127 174.761 127 172V172ZM237 215C237 210.582 233.418 207 229 207H215C210.582 207 207 210.582 207 215V229C207 233.418 210.582 237 215 237H229C233.418 237 237 233.418 237 229V215ZM97 235C97 230.582 93.4183 227 89 227H55C50.5817 227 47 230.582 47 235V269C47 273.418 50.5817 277 55 277H89C93.4183 277 97 273.418 97 269V235ZM99 217C103.418 217 107 220.582 107 225V279C107 283.418 103.418 287 99 287H45C40.5817 287 37 283.418 37 279V225C37 220.582 40.5817 217 45 217H99ZM227 222C227 224.761 224.761 227 222 227V227C219.239 227 217 224.761 217 222V222C217 219.239 219.239 217 222 217V217C224.761 217 227 219.239 227 222V222ZM282 217C284.761 217 287 219.239 287 222V229C287 233.418 283.418 237 279 237H267V232C267 229.239 269.239 227 272 227V227C274.761 227 277 224.761 277 222V222C277 219.239 279.239 217 282 217V217ZM267 247H262C259.239 247 257 244.761 257 242V242C257 239.239 259.239 237 262 237H267V247ZM267 257V247H279C283.418 247 287 250.582 287 255V282C287 284.761 284.761 287 282 287V287C279.239 287 277 284.761 277 282V265C277 260.582 273.418 257 269 257H267ZM267 257H255C250.582 257 247 260.582 247 265V267H225C220.582 267 217 270.582 217 275V282C217 284.761 219.239 287 222 287V287C224.761 287 227 284.761 227 282V282C227 279.239 229.239 277 232 277H247V282C247 284.761 249.239 287 252 287V287C254.761 287 257 284.761 257 282V282C257 279.239 254.761 277 252 277H247V267H259C263.418 267 267 263.418 267 259V257ZM79 237C83.4183 237 87 240.582 87 245V259C87 263.418 83.4183 267 79 267H65C60.5817 267 57 263.418 57 259V245C57 240.582 60.5817 237 65 237H79Z" fill="#FF7033"/>
</svg>
