<svg width="388" height="387" viewBox="0 0 388 387" fill="none" xmlns="http://www.w3.org/2000/svg">
<g clip-path="url(#clip0_137_72)">
<rect x="4" y="3" width="380" height="380" rx="72" fill="#0D0E0F" stroke="#49CFCF" stroke-width="8"/>
<path d="M43 1V387" stroke="#313131" stroke-opacity="0.25"/>
<path d="M388 41L2.00001 41" stroke="#313131" stroke-opacity="0.25"/>
<path d="M94 1V387" stroke="#313131" stroke-opacity="0.25"/>
<path d="M388 92L2.00001 92" stroke="#313131" stroke-opacity="0.25"/>
<path d="M145 1V387" stroke="#313131" stroke-opacity="0.25"/>
<path d="M388 143L2.00001 143" stroke="#313131" stroke-opacity="0.25"/>
<path d="M195 1V387" stroke="#313131" stroke-opacity="0.25"/>
<path d="M388 194L2.00001 194" stroke="#313131" stroke-opacity="0.25"/>
<path d="M246 1V387" stroke="#313131" stroke-opacity="0.25"/>
<path d="M388 245L2.00001 245" stroke="#313131" stroke-opacity="0.25"/>
<path d="M297 1V387" stroke="#313131" stroke-opacity="0.25"/>
<path d="M388 296L2.00001 296" stroke="#313131" stroke-opacity="0.25"/>
<path d="M348 1V387" stroke="#313131" stroke-opacity="0.25"/>
<path d="M388 347L2.00001 347" stroke="#313131" stroke-opacity="0.25"/>
<path d="M91 99C91 91.268 97.268 85 105 85H168C175.732 85 182 91.268 182 99V162C182 169.732 175.732 176 168 176H105C97.268 176 91 169.732 91 162V99Z" fill="#FF7033"/>
<path d="M237 253C237 245.268 243.268 239 251 239H289C296.732 239 303 245.268 303 253V291C303 298.732 296.732 305 289 305H251C243.268 305 237 298.732 237 291V253Z" fill="#FF7033"/>
<path d="M195 98.5C195 91.0442 201.044 85 208.5 85C215.956 85 222 91.0442 222 98.5V162.5C222 169.956 215.956 176 208.5 176C201.044 176 195 169.956 195 162.5V98.5Z" fill="#FF7033"/>
<path d="M195 244.5C195 237.044 201.044 231 208.5 231C215.956 231 222 237.044 222 244.5V291.5C222 298.956 215.956 305 208.5 305C201.044 305 195 298.956 195 291.5V244.5Z" fill="#FF7033"/>
<path d="M96 244.5C96 237.044 102.044 231 109.5 231C116.956 231 123 237.044 123 244.5V291.5C123 298.956 116.956 305 109.5 305C102.044 305 96 298.956 96 291.5V244.5Z" fill="#FF7033"/>
<path d="M136 276.5C136 269.044 142.044 263 149.5 263C156.956 263 163 269.044 163 276.5V291.5C163 298.956 156.956 305 149.5 305C142.044 305 136 298.956 136 291.5V276.5Z" fill="#FF7033"/>
<path d="M129 242.5C129 236.149 134.149 231 140.5 231H177.5C183.851 231 189 236.149 189 242.5C189 248.851 183.851 254 177.5 254H140.5C134.149 254 129 248.851 129 242.5Z" fill="#FF7033"/>
<path d="M91 206C91 198.268 97.268 192 105 192H208C215.732 192 222 198.268 222 206C222 213.732 215.732 220 208 220H105C97.268 220 91 213.732 91 206Z" fill="#FF7033"/>
<path d="M235 137.5C235 130.044 241.044 124 248.5 124C255.956 124 262 130.044 262 137.5V206.5C262 213.956 255.956 220 248.5 220C241.044 220 235 213.956 235 206.5V137.5Z" fill="#FF7033"/>
<path d="M275 137.5C275 130.044 281.044 124 288.5 124C295.956 124 302 130.044 302 137.5C302 144.956 295.956 151 288.5 151C281.044 151 275 144.956 275 137.5Z" fill="#FF7033"/>
<path d="M235 98.5C235 91.0442 241.044 85 248.5 85H288.5C295.956 85 302 91.0442 302 98.5C302 105.956 295.956 112 288.5 112H248.5C241.044 112 235 105.956 235 98.5Z" fill="#FF7033"/>
<path d="M276 171.5C276 164.044 282.044 158 289.5 158C296.956 158 303 164.044 303 171.5V210.5C303 217.956 296.956 224 289.5 224C282.044 224 276 217.956 276 210.5V171.5Z" fill="#FF7033"/>
<path d="M109 111C109 107.134 112.134 104 116 104H156C159.866 104 163 107.134 163 111V151C163 154.866 159.866 158 156 158H116C112.134 158 109 154.866 109 151V111Z" fill="#0D0E0F"/>
<path d="M250 260C250 256.134 253.134 253 257 253H282C285.866 253 289 256.134 289 260V285C289 288.866 285.866 292 282 292H257C253.134 292 250 288.866 250 285V260Z" fill="#0D0E0F"/>
<path d="M86 94C86 86.268 92.268 80 100 80H163C170.732 80 177 86.268 177 94V157C177 164.732 170.732 171 163 171H100C92.268 171 86 164.732 86 157V94Z" fill="#EFEFEF"/>
<path d="M232 248C232 240.268 238.268 234 246 234H284C291.732 234 298 240.268 298 248V286C298 293.732 291.732 300 284 300H246C238.268 300 232 293.732 232 286V248Z" fill="#EFEFEF"/>
<path d="M190 93.5C190 86.0442 196.044 80 203.5 80C210.956 80 217 86.0442 217 93.5V157.5C217 164.956 210.956 171 203.5 171C196.044 171 190 164.956 190 157.5V93.5Z" fill="#EFEFEF"/>
<path d="M190 239.5C190 232.044 196.044 226 203.5 226C210.956 226 217 232.044 217 239.5V286.5C217 293.956 210.956 300 203.5 300C196.044 300 190 293.956 190 286.5V239.5Z" fill="#EFEFEF"/>
<path d="M91 239.5C91 232.044 97.0442 226 104.5 226C111.956 226 118 232.044 118 239.5V286.5C118 293.956 111.956 300 104.5 300C97.0442 300 91 293.956 91 286.5V239.5Z" fill="#EFEFEF"/>
<path d="M131 271.5C131 264.044 137.044 258 144.5 258C151.956 258 158 264.044 158 271.5V286.5C158 293.956 151.956 300 144.5 300C137.044 300 131 293.956 131 286.5V271.5Z" fill="#EFEFEF"/>
<path d="M124 237.5C124 231.149 129.149 226 135.5 226H172.5C178.851 226 184 231.149 184 237.5C184 243.851 178.851 249 172.5 249H135.5C129.149 249 124 243.851 124 237.5Z" fill="#EFEFEF"/>
<path d="M86 201C86 193.268 92.268 187 100 187H203C210.732 187 217 193.268 217 201C217 208.732 210.732 215 203 215H100C92.268 215 86 208.732 86 201Z" fill="#EFEFEF"/>
<path d="M230 132.5C230 125.044 236.044 119 243.5 119C250.956 119 257 125.044 257 132.5V201.5C257 208.956 250.956 215 243.5 215C236.044 215 230 208.956 230 201.5V132.5Z" fill="#EFEFEF"/>
<path d="M270 132.5C270 125.044 276.044 119 283.5 119C290.956 119 297 125.044 297 132.5C297 139.956 290.956 146 283.5 146C276.044 146 270 139.956 270 132.5Z" fill="#EFEFEF"/>
<path d="M230 93.5C230 86.0442 236.044 80 243.5 80H283.5C290.956 80 297 86.0442 297 93.5C297 100.956 290.956 107 283.5 107H243.5C236.044 107 230 100.956 230 93.5Z" fill="#EFEFEF"/>
<path d="M271 166.5C271 159.044 277.044 153 284.5 153C291.956 153 298 159.044 298 166.5V205.5C298 212.956 291.956 219 284.5 219C277.044 219 271 212.956 271 205.5V166.5Z" fill="#EFEFEF"/>
<path d="M104 106C104 102.134 107.134 99 111 99H151C154.866 99 158 102.134 158 106V146C158 149.866 154.866 153 151 153H111C107.134 153 104 149.866 104 146V106Z" fill="#0D0E0F"/>
<path d="M245 255C245 251.134 248.134 248 252 248H277C280.866 248 284 251.134 284 255V280C284 283.866 280.866 287 277 287H252C248.134 287 245 283.866 245 280V255Z" fill="#0D0E0F"/>
</g>
<rect x="4" y="4" width="380" height="379" rx="72" stroke="#FF7033" stroke-width="8"/>
<defs>
<clipPath id="clip0_137_72">
<rect width="388" height="387" rx="76" fill="white"/>
</clipPath>
</defs>
</svg>
